<?xml version="1.0" standalone="no"?>
<!DOCTYPE svg PUBLIC "-//W3C//DTD SVG 20010904//EN"
 "http://www.w3.org/TR/2001/REC-SVG-20010904/DTD/svg10.dtd">
<svg version="1.0" xmlns="http://www.w3.org/2000/svg"
 width="474.000000pt" height="474.000000pt" viewBox="0 0 474.000000 474.000000"
 preserveAspectRatio="xMidYMid meet">
<metadata>
Created by potrace 1.14, written by Peter Selinger 2001-2017
</metadata>
<g transform="translate(0.000000,474.000000) scale(0.100000,-0.100000)"
fill="#000000" stroke="none">
<path d="M1241 4134 c-143 -30 -259 -119 -299 -227 -20 -52 -22 -77 -22 -265
0 -114 5 -214 10 -222 7 -12 43 -16 177 -20 l168 -5 5 -1392 c3 -765 7 -1394
10 -1396 3 -3 18 -9 33 -12 25 -7 36 1 120 83 l92 91 91 -90 c50 -49 99 -89
109 -89 10 0 60 41 111 92 l94 92 94 -92 c51 -51 101 -92 111 -92 10 0 59 40
109 90 l92 90 84 -86 c47 -46 96 -87 108 -91 20 -5 39 10 118 88 l94 93 93
-92 c52 -51 102 -92 112 -92 10 0 59 40 109 90 l92 90 84 -86 c47 -46 96 -87
108 -91 20 -5 39 10 118 88 l94 93 93 -92 c52 -51 102 -92 111 -92 9 0 25 9
36 20 20 20 20 33 20 1553 0 1685 3 1598 -61 1718 -38 71 -124 159 -194 199
-29 17 -88 39 -131 50 -75 19 -111 20 -1103 19 -839 0 -1038 -3 -1090 -15z
m2140 -104 c115 -22 230 -104 280 -201 50 -100 49 -43 49 -1594 l0 -1449 -52
51 c-49 47 -86 73 -104 73 -4 0 -49 -41 -100 -92 l-94 -92 -95 93 c-79 78 -98
92 -117 86 -13 -4 -62 -46 -111 -93 l-87 -87 -81 83 c-89 91 -112 107 -134 95
-8 -5 -53 -46 -100 -92 l-86 -84 -94 92 c-79 78 -98 92 -117 86 -13 -4 -62
-46 -111 -94 l-87 -86 -83 83 c-81 82 -104 102 -120 102 -5 0 -51 -41 -104
-92 l-94 -91 -87 85 c-48 47 -97 89 -110 93 -18 5 -34 -5 -87 -56 l-65 -62 0
1626 0 1627 969 0 c612 0 988 -4 1022 -10z m-2101 -260 l0 -260 -125 0 -125 0
0 163 c0 188 9 219 80 280 39 33 125 75 158 76 9 1 12 -57 12 -259z"/>
<path d="M1765 3635 c-29 -28 -31 -42 -9 -73 17 -25 74 -31 92 -9 24 30 23 56
-2 82 -31 31 -50 32 -81 0z"/>
<path d="M1991 3647 c-56 -29 -42 -100 21 -105 30 -3 40 1 53 21 21 32 11 71
-21 86 -30 13 -24 13 -53 -2z"/>
<path d="M2191 3641 c-36 -36 -21 -97 24 -101 46 -5 75 16 75 54 0 53 -63 83
-99 47z"/>
<path d="M2420 3652 c-40 -15 -52 -68 -22 -95 26 -24 79 -22 92 2 28 54 -17
114 -70 93z"/>
<path d="M2615 3635 c-29 -28 -31 -42 -9 -73 18 -26 75 -30 94 -7 20 24 15 67
-10 87 -30 24 -46 23 -75 -7z"/>
<path d="M2832 3644 c-25 -17 -31 -71 -10 -92 21 -21 75 -15 92 10 22 31 20
45 -9 73 -28 29 -42 31 -73 9z"/>
<path d="M3060 3653 c-39 -14 -53 -69 -24 -97 34 -35 104 -8 104 40 -1 38 -44
69 -80 57z"/>
<path d="M3250 3640 c-27 -27 -25 -64 5 -88 61 -48 130 33 75 88 -11 11 -29
20 -40 20 -11 0 -29 -9 -40 -20z"/>
<path d="M1714 3342 c-6 -4 -16 -17 -23 -30 -10 -19 -10 -28 4 -48 l15 -24
831 0 c553 0 837 3 850 10 27 15 25 64 -3 84 -20 14 -116 16 -843 16 -451 0
-825 -4 -831 -8z"/>
<path d="M1702 2948 c-22 -29 -23 -57 -3 -77 21 -21 27 -21 850 -21 741 0 831
2 845 16 21 21 20 57 -2 77 -17 16 -90 17 -849 17 -652 0 -833 -3 -841 -12z"/>
<path d="M1702 2558 c-22 -29 -23 -57 -3 -77 21 -21 27 -21 844 -21 896 0 867
-2 867 55 0 58 44 55 -864 55 -655 0 -836 -3 -844 -12z"/>
<path d="M3080 2275 c0 -19 -10 -29 -40 -45 -63 -32 -94 -88 -98 -177 -6 -105
20 -153 149 -280 113 -110 129 -134 129 -193 0 -51 -34 -90 -80 -90 -39 0 -67
29 -82 85 -11 41 -15 45 -44 45 -17 0 -46 -3 -63 -6 -30 -6 -31 -8 -25 -43 3
-20 14 -54 24 -76 18 -43 90 -115 115 -115 10 0 15 -11 15 -35 l0 -35 55 0
c54 0 55 1 55 28 0 24 7 31 49 49 72 30 105 84 109 178 6 107 -24 162 -154
290 -116 114 -137 154 -116 224 17 53 61 73 100 44 15 -11 31 -35 36 -54 5
-19 10 -35 10 -36 1 -1 28 4 61 11 58 12 60 13 57 41 -7 66 -56 128 -122 155
-21 9 -30 19 -30 36 0 22 -4 24 -55 24 -52 0 -55 -1 -55 -25z"/>
<path d="M1723 2180 c-35 -14 -47 -47 -28 -76 8 -13 21 -24 28 -24 169 -3 406
0 419 5 39 15 33 80 -9 96 -31 11 -380 11 -410 -1z"/>
<path d="M1712 1793 c-25 -10 -34 -53 -17 -79 l15 -24 393 0 c292 0 396 3 405
12 20 20 15 76 -7 88 -20 10 -763 14 -789 3z"/>
<path d="M1702 1398 c-20 -25 -18 -60 4 -82 14 -14 71 -16 478 -16 436 0 464
1 479 18 22 24 21 55 -1 75 -17 15 -65 17 -484 17 -360 0 -468 -3 -476 -12z"/>
</g>
</svg>
